<?xml version="1.0" encoding="UTF-8" standalone="no"?>
<svg
   xmlns:dc="http://purl.org/dc/elements/1.1/"
   xmlns:cc="http://creativecommons.org/ns#"
   xmlns:rdf="http://www.w3.org/1999/02/22-rdf-syntax-ns#"
   xmlns:svg="http://www.w3.org/2000/svg"
   xmlns="http://www.w3.org/2000/svg"
   version="1.1"
   id="svg2"
   viewBox="0 0 759.68821 175"
   height="140pt"
   width="607.75055pt">
  <defs
     id="defs4" />
  <metadata
     id="metadata7">
    <rdf:RDF>
      <cc:Work
         rdf:about="">
        <dc:format>image/svg+xml</dc:format>
        <dc:type
           rdf:resource="http://purl.org/dc/dcmitype/StillImage" />
        <dc:title />
      </cc:Work>
    </rdf:RDF>
  </metadata>
  <g
     transform="translate(-175.44588,-38.132203)"
     id="layer1">
    <g
       id="flowRoot4136"
       style="font-style:normal;font-variant:normal;font-weight:normal;font-stretch:normal;font-size:40px;line-height:125%;font-family:'Fira Sans';-inkscape-font-specification:'Fira Sans';letter-spacing:0px;word-spacing:0px;fill:#000000;fill-opacity:1;stroke:none;stroke-width:1px;stroke-linecap:butt;stroke-linejoin:miter;stroke-opacity:1" />
    <g
       id="flowRoot4150"
       style="font-style:italic;font-variant:normal;font-weight:normal;font-stretch:normal;font-size:35px;line-height:125%;font-family:Montserrat;-inkscape-font-specification:'Montserrat, Italic';text-align:start;letter-spacing:0px;word-spacing:0px;writing-mode:lr-tb;text-anchor:start;fill:#000000;fill-opacity:1;stroke:none;stroke-width:1px;stroke-linecap:butt;stroke-linejoin:miter;stroke-opacity:1"
       transform="translate(-8.0158447,-256.35822)">
      <path
         id="path28"
         style="font-style:italic;font-variant:normal;font-weight:500;font-stretch:normal;font-size:35.00000381px;line-height:125%;font-family:Montserrat;-inkscape-font-specification:'Montserrat, Medium Italic';text-align:start;writing-mode:lr-tb;text-anchor:start"
         d="m 590.39227,367.10292 3.5,0 4.9,-24.5 -3.5,0 -4.9,24.5 z" />
      <path
         id="path30"
         style="font-style:italic;font-variant:normal;font-weight:500;font-stretch:normal;font-size:35.00000381px;line-height:125%;font-family:Montserrat;-inkscape-font-specification:'Montserrat, Medium Italic';text-align:start;writing-mode:lr-tb;text-anchor:start"
         d="m 613.96641,348.37792 c -2.66,0 -5.005,0.805 -6.72,2.555 l 0.455,-2.38 -3.22,0 -3.675,18.55 3.36,0 1.96,-9.8 c 0.805,-3.99 3.255,-5.915 6.86,-5.915 2.905,0 4.305,1.365 4.305,3.78 0,0.455 -0.07,0.98 -0.175,1.54 l -2.065,10.395 3.36,0 2.065,-10.395 c 0.14,-0.77 0.21,-1.505 0.21,-2.17 0,-3.955 -2.52,-6.16 -6.72,-6.16 z" />
      <path
         id="path32"
         style="font-style:italic;font-variant:normal;font-weight:500;font-stretch:normal;font-size:35.00000381px;line-height:125%;font-family:Montserrat;-inkscape-font-specification:'Montserrat, Medium Italic';text-align:start;writing-mode:lr-tb;text-anchor:start"
         d="m 631.62883,351.31792 5.32,0 0.56,-2.765 -5.32,0 0.805,-4.06 -3.36,0 -0.805,4.06 -3.185,0 -0.525,2.765 3.15,0 -1.995,9.94 c -0.105,0.49 -0.14,0.98 -0.14,1.4 0,2.905 1.995,4.655 4.9,4.655 1.47,0 3.045,-0.28 4.305,-1.155 l -0.7,-2.555 c -0.77,0.56 -1.75,0.875 -2.66,0.875 -1.68,0 -2.45,-0.875 -2.45,-2.31 0,-0.315 0.035,-0.63 0.105,-0.98 l 1.995,-9.87 z" />
      <path
         id="path34"
         style="font-style:italic;font-variant:normal;font-weight:500;font-stretch:normal;font-size:35.00000381px;line-height:125%;font-family:Montserrat;-inkscape-font-specification:'Montserrat, Medium Italic';text-align:start;writing-mode:lr-tb;text-anchor:start"
         d="m 645.52602,351.31792 0.525,-2.765 -3.22,0 -3.675,18.55 3.36,0 1.855,-9.275 c 0.84,-4.27 3.29,-6.23 7,-6.23 0.35,0 0.56,0 0.875,0.035 l 0.63,-3.255 c -3.325,0 -5.67,0.84 -7.35,2.94 z" />
      <path
         id="path36"
         style="font-style:italic;font-variant:normal;font-weight:500;font-stretch:normal;font-size:35.00000381px;line-height:125%;font-family:Montserrat;-inkscape-font-specification:'Montserrat, Medium Italic';text-align:start;writing-mode:lr-tb;text-anchor:start"
         d="m 661.78134,367.31292 c 6.335,0 10.85,-4.655 10.85,-10.955 0,-4.865 -3.395,-7.98 -8.68,-7.98 -6.335,0 -10.885,4.655 -10.885,10.92 0,4.83 3.43,8.015 8.715,8.015 z m 0.21,-2.94 c -3.535,0 -5.53,-1.96 -5.53,-5.215 0,-4.585 3.08,-7.84 7.245,-7.84 3.535,0 5.53,1.925 5.53,5.215 0,4.585 -3.045,7.84 -7.245,7.84 z" />
      <path
         id="path38"
         style="font-style:italic;font-variant:normal;font-weight:500;font-stretch:normal;font-size:35.00000381px;line-height:125%;font-family:Montserrat;-inkscape-font-specification:'Montserrat, Medium Italic';text-align:start;writing-mode:lr-tb;text-anchor:start"
         d="m 694.60313,341.13292 -2.1,10.605 c -1.19,-2.205 -3.535,-3.36 -6.72,-3.36 -6.02,0 -10.5,4.55 -10.5,10.92 0,5.005 3.465,8.015 8.19,8.015 2.66,0 4.9,-0.91 6.545,-2.485 l -0.455,2.275 3.22,0 5.18001,-25.97 -3.36001,0 z m -10.395,23.24 c -3.535,0 -5.53,-1.96 -5.53,-5.215 0,-4.585 3.08,-7.84 7.245,-7.84 3.535,0 5.53,1.925 5.53,5.215 0,4.585 -3.045,7.84 -7.245,7.84 z" />
      <path
         id="path40"
         style="font-style:italic;font-variant:normal;font-weight:500;font-stretch:normal;font-size:35.00000381px;line-height:125%;font-family:Montserrat;-inkscape-font-specification:'Montserrat, Medium Italic';text-align:start;writing-mode:lr-tb;text-anchor:start"
         d="m 716.78056,348.55292 -1.96,9.835 c -0.805,3.955 -3.29,5.915 -6.79,5.915 -2.835,0 -4.235,-1.365 -4.235,-3.745 0,-0.49 0.07,-1.015 0.175,-1.575 l 2.065,-10.43 -3.36,0 -2.06501,10.395 c -0.14,0.77 -0.21,1.47 -0.21,2.135 0,3.955 2.59001,6.23 6.65001,6.23 2.59,0 4.935,-0.84 6.65,-2.59 l -0.455,2.38 3.22,0 3.675,-18.55 -3.36,0 z" />
      <path
         id="path42"
         style="font-style:italic;font-variant:normal;font-weight:500;font-stretch:normal;font-size:35.00000381px;line-height:125%;font-family:Montserrat;-inkscape-font-specification:'Montserrat, Medium Italic';text-align:start;writing-mode:lr-tb;text-anchor:start"
         d="m 731.68127,367.31292 c 3.325,0 6.405,-1.435 8.12,-3.815 l -2.45,-1.75 c -1.295,1.75 -3.325,2.625 -5.53,2.625 -3.57,0 -5.565,-1.96 -5.565,-5.215 0,-4.585 3.08,-7.84 7.28,-7.84 2.38,0 4.06,0.875 5.04,2.66 l 2.835,-1.575 c -1.435,-2.695 -4.06,-4.025 -7.63,-4.025 -6.37,0 -10.92,4.655 -10.92,10.92 0,4.83 3.43,8.015 8.82,8.015 z" />
      <path
         id="path44"
         style="font-style:italic;font-variant:normal;font-weight:500;font-stretch:normal;font-size:35.00000381px;line-height:125%;font-family:Montserrat;-inkscape-font-specification:'Montserrat, Medium Italic';text-align:start;writing-mode:lr-tb;text-anchor:start"
         d="m 750.09564,351.31792 5.32,0 0.56,-2.765 -5.32,0 0.805,-4.06 -3.36,0 -0.805,4.06 -3.185,0 -0.525,2.765 3.15,0 -1.995,9.94 c -0.105,0.49 -0.14,0.98 -0.14,1.4 0,2.905 1.995,4.655 4.9,4.655 1.47,0 3.045,-0.28 4.305,-1.155 l -0.7,-2.555 c -0.77,0.56 -1.75,0.875 -2.66,0.875 -1.68,0 -2.45,-0.875 -2.45,-2.31 0,-0.315 0.035,-0.63 0.105,-0.98 l 1.995,-9.87 z" />
      <path
         id="path46"
         style="font-style:italic;font-variant:normal;font-weight:500;font-stretch:normal;font-size:35.00000381px;line-height:125%;font-family:Montserrat;-inkscape-font-specification:'Montserrat, Medium Italic';text-align:start;writing-mode:lr-tb;text-anchor:start"
         d="m 763.95783,344.98292 c 1.435,0 2.45,-0.98 2.45,-2.415 0,-1.05 -0.91,-1.96 -2.135,-1.96 -1.435,0 -2.415,1.05 -2.415,2.345 0,1.12 0.875,2.03 2.1,2.03 z m -6.335,22.12 3.36,0 3.675,-18.55 -3.36,0 -3.675,18.55 z" />
      <path
         id="path48"
         style="font-style:italic;font-variant:normal;font-weight:500;font-stretch:normal;font-size:35.00000381px;line-height:125%;font-family:Montserrat;-inkscape-font-specification:'Montserrat, Medium Italic';text-align:start;writing-mode:lr-tb;text-anchor:start"
         d="m 776.07822,367.31292 c 6.335,0 10.85,-4.655 10.85,-10.955 0,-4.865 -3.395,-7.98 -8.68,-7.98 -6.335,0 -10.885,4.655 -10.885,10.92 0,4.83 3.43,8.015 8.715,8.015 z m 0.21,-2.94 c -3.535,0 -5.53,-1.96 -5.53,-5.215 0,-4.585 3.08,-7.84 7.245,-7.84 3.535,0 5.53,1.925 5.53,5.215 0,4.585 -3.045,7.84 -7.245,7.84 z" />
      <path
         id="path50"
         style="font-style:italic;font-variant:normal;font-weight:500;font-stretch:normal;font-size:35.00000381px;line-height:125%;font-family:Montserrat;-inkscape-font-specification:'Montserrat, Medium Italic';text-align:start;writing-mode:lr-tb;text-anchor:start"
         d="m 802.77502,348.37792 c -2.66,0 -5.005,0.805 -6.72,2.555 l 0.455,-2.38 -3.22,0 -3.675,18.55 3.36,0 1.96,-9.8 c 0.805,-3.99 3.255,-5.915 6.86,-5.915 2.905,0 4.305,1.365 4.305,3.78 0,0.455 -0.07,0.98 -0.175,1.54 l -2.065,10.395 3.36,0 2.065,-10.395 c 0.14,-0.77 0.21,-1.505 0.21,-2.17 0,-3.955 -2.52,-6.16 -6.72,-6.16 z" />
      <path
         id="path52"
         style="font-style:italic;font-variant:normal;font-weight:500;font-stretch:normal;font-size:35.00000381px;line-height:125%;font-family:Montserrat;-inkscape-font-specification:'Montserrat, Medium Italic';text-align:start;writing-mode:lr-tb;text-anchor:start"
         d="m 829.87103,351.31792 5.32,0 0.56,-2.765 -5.32,0 0.805,-4.06 -3.36,0 -0.805,4.06 -3.185,0 -0.525,2.765 3.15,0 -1.995,9.94 c -0.105,0.49 -0.14,0.98 -0.14,1.4 0,2.905 1.995,4.655 4.9,4.655 1.47,0 3.045,-0.28 4.305,-1.155 l -0.7,-2.555 c -0.77,0.56 -1.75,0.875 -2.66,0.875 -1.68,0 -2.45,-0.875 -2.45,-2.31 0,-0.315 0.035,-0.63 0.105,-0.98 l 1.995,-9.87 z" />
      <path
         id="path54"
         style="font-style:italic;font-variant:normal;font-weight:500;font-stretch:normal;font-size:35.00000381px;line-height:125%;font-family:Montserrat;-inkscape-font-specification:'Montserrat, Medium Italic';text-align:start;writing-mode:lr-tb;text-anchor:start"
         d="m 845.463,367.31292 c 6.335,0 10.85,-4.655 10.85,-10.955 0,-4.865 -3.395,-7.98 -8.68,-7.98 -6.335,0 -10.885,4.655 -10.885,10.92 0,4.83 3.43,8.015 8.715,8.015 z m 0.21,-2.94 c -3.535,0 -5.53,-1.96 -5.53,-5.215 0,-4.585 3.08,-7.84 7.245,-7.84 3.535,0 5.53,1.925 5.53,5.215 0,4.585 -3.045,7.84 -7.245,7.84 z" />
      <path
         id="path56"
         style="font-style:italic;font-variant:normal;font-weight:500;font-stretch:normal;font-size:35.00000381px;line-height:125%;font-family:Montserrat;-inkscape-font-specification:'Montserrat, Medium Italic';text-align:start;writing-mode:lr-tb;text-anchor:start"
         d="m 602.36227,411.13292 c 3.92,0 7.42,-1.225 9.695,-3.71 l -2.03,-2.31 c -1.925,1.925 -4.445,2.905 -7.42,2.905 -5.53,0 -8.435,-2.975 -8.435,-7.42 0,-6.16 4.305,-11.41 11.27,-11.41 3.045,0 5.285,1.015 6.72,2.87 l 2.52,-2.17 c -1.68,-2.45 -4.935,-3.815 -8.995,-3.815 -9.17,0 -15.015,6.58 -15.015,14.735 0,6.125 4.305,10.325 11.69,10.325 z" />
      <path
         id="path58"
         style="font-style:italic;font-variant:normal;font-weight:500;font-stretch:normal;font-size:35.00000381px;line-height:125%;font-family:Montserrat;-inkscape-font-specification:'Montserrat, Medium Italic';text-align:start;writing-mode:lr-tb;text-anchor:start"
         d="m 623.15828,411.06292 c 6.335,0 10.85001,-4.655 10.85001,-10.955 0,-4.865 -3.395,-7.98 -8.68001,-7.98 -6.335,0 -10.885,4.655 -10.885,10.92 0,4.83 3.43,8.015 8.715,8.015 z m 0.21,-2.94 c -3.535,0 -5.53,-1.96 -5.53,-5.215 0,-4.585 3.08,-7.84 7.245,-7.84 3.535,0 5.53001,1.925 5.53001,5.215 0,4.585 -3.04501,7.84 -7.24501,7.84 z" />
      <path
         id="path60"
         style="font-style:italic;font-variant:normal;font-weight:500;font-stretch:normal;font-size:35.00000381px;line-height:125%;font-family:Montserrat;-inkscape-font-specification:'Montserrat, Medium Italic';text-align:start;writing-mode:lr-tb;text-anchor:start"
         d="m 663.08508,392.12792 c -3.08,0 -5.67,1.085 -7.56,3.29 -0.945,-2.135 -3.045,-3.29 -5.95,-3.29 -2.52,0 -4.76,0.77 -6.44,2.485 l 0.455,-2.31 -3.22,0 -3.675,18.55 3.36,0 1.96,-9.8 c 0.805,-3.99 3.08,-5.915 6.51,-5.915 2.8,0 4.13,1.365 4.13,3.745 0,0.49 -0.07,1.015 -0.175,1.575 l -2.1,10.395 3.36,0 1.995,-9.905 c 0.805,-3.92 3.115,-5.81 6.51,-5.81 2.76501,0 4.09501,1.33 4.09501,3.71 0,0.49 -0.07,1.015 -0.175,1.61 l -2.065,10.395 3.36,0 2.065,-10.395 c 0.14,-0.805 0.245,-1.54 0.245,-2.205 0,-3.92 -2.485,-6.125 -6.68501,-6.125 z" />
      <path
         id="path62"
         style="font-style:italic;font-variant:normal;font-weight:500;font-stretch:normal;font-size:35.00000381px;line-height:125%;font-family:Montserrat;-inkscape-font-specification:'Montserrat, Medium Italic';text-align:start;writing-mode:lr-tb;text-anchor:start"
         d="m 686.66251,392.12792 c -2.695,0 -4.9,0.91 -6.545,2.485 l 0.455,-2.31 -3.22,0 -5.04,25.34 3.36,0 1.96,-9.94 c 1.19,2.17 3.535,3.36 6.72,3.36 6.02,0 10.5,-4.585 10.5,-10.955 0,-5.005 -3.465,-7.98 -8.19,-7.98 z m -2.45,15.995 c -3.535,0 -5.53,-1.96 -5.53,-5.215 0,-4.585 3.045,-7.84 7.245,-7.84 3.535,0 5.53,1.925 5.53,5.215 0,4.585 -3.08,7.84 -7.245,7.84 z" />
      <path
         id="path64"
         style="font-style:italic;font-variant:normal;font-weight:500;font-stretch:normal;font-size:35.00000381px;line-height:125%;font-family:Montserrat;-inkscape-font-specification:'Montserrat, Medium Italic';text-align:start;writing-mode:lr-tb;text-anchor:start"
         d="m 715.13993,392.30292 -1.96,9.835 c -0.805,3.955 -3.29,5.915 -6.79,5.915 -2.835,0 -4.235,-1.365 -4.235,-3.745 0,-0.49 0.07,-1.015 0.175,-1.575 l 2.065,-10.43 -3.36,0 -2.065,10.395 c -0.14,0.77 -0.21,1.47 -0.21,2.135 0,3.955 2.59,6.23 6.65,6.23 2.59,0 4.935,-0.84 6.65,-2.59 l -0.455,2.38 3.22,0 3.675,-18.55 -3.36,0 z" />
      <path
         id="path66"
         style="font-style:italic;font-variant:normal;font-weight:500;font-stretch:normal;font-size:35.00000381px;line-height:125%;font-family:Montserrat;-inkscape-font-specification:'Montserrat, Medium Italic';text-align:start;writing-mode:lr-tb;text-anchor:start"
         d="m 728.22064,395.06792 5.32,0 0.56,-2.765 -5.32,0 0.805,-4.06 -3.36,0 -0.805,4.06 -3.185,0 -0.525,2.765 3.15,0 -1.995,9.94 c -0.105,0.49 -0.14,0.98 -0.14,1.4 0,2.905 1.995,4.655 4.9,4.655 1.47,0 3.045,-0.28 4.305,-1.155 l -0.7,-2.555 c -0.77,0.56 -1.75,0.875 -2.66,0.875 -1.68,0 -2.45,-0.875 -2.45,-2.31 0,-0.315 0.035,-0.63 0.105,-0.98 l 1.995,-9.87 z" />
      <path
         id="path68"
         style="font-style:italic;font-variant:normal;font-weight:500;font-stretch:normal;font-size:35.00000381px;line-height:125%;font-family:Montserrat;-inkscape-font-specification:'Montserrat, Medium Italic';text-align:start;writing-mode:lr-tb;text-anchor:start"
         d="m 752.9126,392.30292 -0.63,3.15 c -1.19,-2.17 -3.5,-3.325 -6.68501,-3.325 -6.02,0 -10.5,4.55 -10.5,10.92 0,5.005 3.465,8.015 8.19,8.015 2.66,0 4.9,-0.91 6.54501,-2.485 l -0.455,2.275 3.22,0 3.675,-18.55 -3.36,0 z m -8.89001,15.82 c -3.535,0 -5.53,-1.96 -5.53,-5.215 0,-4.585 3.08,-7.84 7.245,-7.84 3.53501,0 5.53001,1.925 5.53001,5.215 0,4.585 -3.04501,7.84 -7.24501,7.84 z" />
      <path
         id="path70"
         style="font-style:italic;font-variant:normal;font-weight:500;font-stretch:normal;font-size:35.00000381px;line-height:125%;font-family:Montserrat;-inkscape-font-specification:'Montserrat, Medium Italic';text-align:start;writing-mode:lr-tb;text-anchor:start"
         d="m 765.95502,395.06792 5.32,0 0.56,-2.765 -5.32,0 0.805,-4.06 -3.36,0 -0.805,4.06 -3.185,0 -0.525,2.765 3.15,0 -1.995,9.94 c -0.105,0.49 -0.14,0.98 -0.14,1.4 0,2.905 1.995,4.655 4.9,4.655 1.47,0 3.045,-0.28 4.305,-1.155 l -0.7,-2.555 c -0.77,0.56 -1.75,0.875 -2.66,0.875 -1.68,0 -2.45,-0.875 -2.45,-2.31 0,-0.315 0.035,-0.63 0.105,-0.98 l 1.995,-9.87 z" />
      <path
         id="path72"
         style="font-style:italic;font-variant:normal;font-weight:500;font-stretch:normal;font-size:35.00000381px;line-height:125%;font-family:Montserrat;-inkscape-font-specification:'Montserrat, Medium Italic';text-align:start;writing-mode:lr-tb;text-anchor:start"
         d="m 779.8172,388.73292 c 1.435,0 2.45,-0.98 2.45,-2.415 0,-1.05 -0.91,-1.96 -2.135,-1.96 -1.435,0 -2.415,1.05 -2.415,2.345 0,1.12 0.875,2.03 2.1,2.03 z m -6.335,22.12 3.36,0 3.675,-18.55 -3.36,0 -3.675,18.55 z" />
      <path
         id="path74"
         style="font-style:italic;font-variant:normal;font-weight:500;font-stretch:normal;font-size:35.00000381px;line-height:125%;font-family:Montserrat;-inkscape-font-specification:'Montserrat, Medium Italic';text-align:start;writing-mode:lr-tb;text-anchor:start"
         d="m 791.93759,411.06292 c 6.33501,0 10.85001,-4.655 10.85001,-10.955 0,-4.865 -3.395,-7.98 -8.68001,-7.98 -6.335,0 -10.885,4.655 -10.885,10.92 0,4.83 3.43,8.015 8.715,8.015 z m 0.21,-2.94 c -3.535,0 -5.53,-1.96 -5.53,-5.215 0,-4.585 3.08,-7.84 7.245,-7.84 3.53501,0 5.53001,1.925 5.53001,5.215 0,4.585 -3.04501,7.84 -7.24501,7.84 z" />
      <path
         id="path76"
         style="font-style:italic;font-variant:normal;font-weight:500;font-stretch:normal;font-size:35.00000381px;line-height:125%;font-family:Montserrat;-inkscape-font-specification:'Montserrat, Medium Italic';text-align:start;writing-mode:lr-tb;text-anchor:start"
         d="m 818.63439,392.12792 c -2.66,0 -5.005,0.805 -6.72,2.555 l 0.455,-2.38 -3.22,0 -3.675,18.55 3.36,0 1.96,-9.8 c 0.805,-3.99 3.255,-5.915 6.86,-5.915 2.905,0 4.305,1.365 4.305,3.78 0,0.455 -0.07,0.98 -0.175,1.54 l -2.065,10.395 3.36,0 2.065,-10.395 c 0.14,-0.77 0.21,-1.505 0.21,-2.17 0,-3.955 -2.52,-6.16 -6.72,-6.16 z" />
      <path
         id="path78"
         style="font-style:italic;font-variant:normal;font-weight:500;font-stretch:normal;font-size:35.00000381px;line-height:125%;font-family:Montserrat;-inkscape-font-specification:'Montserrat, Medium Italic';text-align:start;writing-mode:lr-tb;text-anchor:start"
         d="m 847.24853,392.30292 -0.63,3.15 c -1.19,-2.17 -3.5,-3.325 -6.685,-3.325 -6.02,0 -10.5,4.55 -10.5,10.92 0,5.005 3.465,8.015 8.19,8.015 2.66,0 4.9,-0.91 6.545,-2.485 l -0.455,2.275 3.22,0 3.675,-18.55 -3.36,0 z m -8.89,15.82 c -3.535,0 -5.53,-1.96 -5.53,-5.215 0,-4.585 3.08,-7.84 7.245,-7.84 3.535,0 5.53,1.925 5.53,5.215 0,4.585 -3.045,7.84 -7.245,7.84 z" />
      <path
         id="path80"
         style="font-style:italic;font-variant:normal;font-weight:500;font-stretch:normal;font-size:35.00000381px;line-height:125%;font-family:Montserrat;-inkscape-font-specification:'Montserrat, Medium Italic';text-align:start;writing-mode:lr-tb;text-anchor:start"
         d="m 853.32597,410.85292 3.36,0 5.18,-25.97 -3.36,0 -5.18,25.97 z" />
      <path
         id="path82"
         style="font-style:italic;font-variant:normal;font-weight:500;font-stretch:normal;font-size:35.00000381px;line-height:125%;font-family:Montserrat;-inkscape-font-specification:'Montserrat, Medium Italic';text-align:start;writing-mode:lr-tb;text-anchor:start"
         d="m 890.31495,392.30292 -0.63,3.15 c -1.19,-2.17 -3.5,-3.325 -6.685,-3.325 -6.02,0 -10.5,4.55 -10.5,10.92 0,5.005 3.465,8.015 8.19,8.015 2.66,0 4.9,-0.91 6.545,-2.485 l -0.455,2.275 3.22,0 3.675,-18.55 -3.36,0 z m -8.89,15.82 c -3.535,0 -5.53,-1.96 -5.53,-5.215 0,-4.585 3.08,-7.84 7.245,-7.84 3.535,0 5.53,1.925 5.53,5.215 0,4.585 -3.045,7.84 -7.245,7.84 z" />
      <path
         id="path84"
         style="font-style:italic;font-variant:normal;font-weight:500;font-stretch:normal;font-size:35.00000381px;line-height:125%;font-family:Montserrat;-inkscape-font-specification:'Montserrat, Medium Italic';text-align:start;writing-mode:lr-tb;text-anchor:start"
         d="m 909.55238,392.12792 c -2.66,0 -5.005,0.805 -6.72,2.555 l 0.455,-2.38 -3.22001,0 -3.675,18.55 3.36,0 1.96,-9.8 c 0.80501,-3.99 3.25501,-5.915 6.86001,-5.915 2.905,0 4.305,1.365 4.305,3.78 0,0.455 -0.07,0.98 -0.175,1.54 l -2.065,10.395 3.36,0 2.065,-10.395 c 0.14,-0.77 0.21,-1.505 0.21,-2.17 0,-3.955 -2.52,-6.16 -6.72,-6.16 z" />
      <path
         id="path86"
         style="font-style:italic;font-variant:normal;font-weight:500;font-stretch:normal;font-size:35.00000381px;line-height:125%;font-family:Montserrat;-inkscape-font-specification:'Montserrat, Medium Italic';text-align:start;writing-mode:lr-tb;text-anchor:start"
         d="m 939.67152,384.88292 -2.1,10.605 c -1.19,-2.205 -3.535,-3.36 -6.72,-3.36 -6.02,0 -10.5,4.55 -10.5,10.92 0,5.005 3.465,8.015 8.19,8.015 2.66,0 4.9,-0.91 6.545,-2.485 l -0.455,2.275 3.22,0 5.18,-25.97 -3.36,0 z m -10.395,23.24 c -3.535,0 -5.53,-1.96 -5.53,-5.215 0,-4.585 3.08,-7.84 7.245,-7.84 3.535,0 5.53,1.925 5.53,5.215 0,4.585 -3.045,7.84 -7.245,7.84 z" />
      <path
         id="path88"
         style="font-style:italic;font-variant:normal;font-weight:500;font-stretch:normal;font-size:35.00000381px;line-height:125%;font-family:Montserrat;-inkscape-font-specification:'Montserrat, Medium Italic';text-align:start;writing-mode:lr-tb;text-anchor:start"
         d="m 590.39227,454.60292 10.955,0 c 9.17,0 15.26,-5.81 15.26,-14.455 0,-6.09 -4.305,-10.045 -11.725,-10.045 l -9.59,0 -4.9,24.5 z m 4.095,-3.045 3.675,-18.41 6.37,0 c 5.705,0 8.54,2.8 8.54,7.21 0,6.475 -4.41,11.2 -11.62,11.2 l -6.965,0 z" />
      <path
         id="path90"
         style="font-style:italic;font-variant:normal;font-weight:500;font-stretch:normal;font-size:35.00000381px;line-height:125%;font-family:Montserrat;-inkscape-font-specification:'Montserrat, Medium Italic';text-align:start;writing-mode:lr-tb;text-anchor:start"
         d="m 636.63329,436.05292 -0.63,3.15 c -1.19,-2.17 -3.5,-3.325 -6.685,-3.325 -6.02,0 -10.5,4.55 -10.5,10.92 0,5.005 3.465,8.015 8.19,8.015 2.66,0 4.9,-0.91 6.545,-2.485 l -0.455,2.275 3.22,0 3.675,-18.55 -3.36,0 z m -8.89,15.82 c -3.535,0 -5.53,-1.96 -5.53,-5.215 0,-4.585 3.08,-7.84 7.245,-7.84 3.535,0 5.53,1.925 5.53,5.215 0,4.585 -3.045,7.84 -7.245,7.84 z" />
      <path
         id="path92"
         style="font-style:italic;font-variant:normal;font-weight:500;font-stretch:normal;font-size:35.00000381px;line-height:125%;font-family:Montserrat;-inkscape-font-specification:'Montserrat, Medium Italic';text-align:start;writing-mode:lr-tb;text-anchor:start"
         d="m 649.67571,438.81792 5.32,0 0.56,-2.765 -5.32,0 0.805,-4.06 -3.36,0 -0.805,4.06 -3.185,0 -0.525,2.765 3.15,0 -1.995,9.94 c -0.105,0.49 -0.14,0.98 -0.14,1.4 0,2.905 1.995,4.655 4.9,4.655 1.47,0 3.045,-0.28 4.305,-1.155 l -0.7,-2.555 c -0.77,0.56 -1.75,0.875 -2.66,0.875 -1.68,0 -2.45,-0.875 -2.45,-2.31 0,-0.315 0.035,-0.63 0.105,-0.98 l 1.995,-9.87 z" />
      <path
         id="path94"
         style="font-style:italic;font-variant:normal;font-weight:500;font-stretch:normal;font-size:35.00000381px;line-height:125%;font-family:Montserrat;-inkscape-font-specification:'Montserrat, Medium Italic';text-align:start;writing-mode:lr-tb;text-anchor:start"
         d="m 674.36767,436.05292 -0.63,3.15 c -1.19,-2.17 -3.5,-3.325 -6.685,-3.325 -6.02001,0 -10.50001,4.55 -10.50001,10.92 0,5.005 3.465,8.015 8.19,8.015 2.66001,0 4.90001,-0.91 6.54501,-2.485 l -0.455,2.275 3.22,0 3.675,-18.55 -3.36,0 z m -8.89001,15.82 c -3.535,0 -5.53,-1.96 -5.53,-5.215 0,-4.585 3.08,-7.84 7.24501,-7.84 3.535,0 5.53,1.925 5.53,5.215 0,4.585 -3.045,7.84 -7.24501,7.84 z" />
      <path
         id="path96"
         style="font-style:italic;font-variant:normal;font-weight:500;font-stretch:normal;font-size:35.00000381px;line-height:125%;font-family:Montserrat;-inkscape-font-specification:'Montserrat, Medium Italic';text-align:start;writing-mode:lr-tb;text-anchor:start"
         d="m 697.89368,454.88292 c 6.09,0 10.36,-2.87 10.36,-7.63 0,-7.455 -12.565,-5.005 -12.565,-10.15 0,-2.59 2.555,-4.305 6.58,-4.305 2.485,0 4.83,0.665 6.65,1.96 l 1.4,-2.87 c -1.995,-1.33 -4.865,-2.065 -7.875,-2.065 -5.985,0 -10.185,2.905 -10.185,7.595 0,7.84 12.565,5.215 12.565,10.325 0,2.66 -2.66,4.165 -6.615,4.165 -3.045,0 -6.09,-1.085 -7.945,-2.8 l -1.54,2.8 c 1.785,1.68 5.425,2.975 9.17,2.975 z" />
      <path
         id="path98"
         style="font-style:italic;font-variant:normal;font-weight:500;font-stretch:normal;font-size:35.00000381px;line-height:125%;font-family:Montserrat;-inkscape-font-specification:'Montserrat, Medium Italic';text-align:start;writing-mode:lr-tb;text-anchor:start"
         d="m 720.40197,454.81292 c 3.325,0 6.405,-1.435 8.12,-3.815 l -2.45,-1.75 c -1.295,1.75 -3.325,2.625 -5.53,2.625 -3.57,0 -5.565,-1.96 -5.565,-5.215 0,-4.585 3.08,-7.84 7.28,-7.84 2.38,0 4.06,0.875 5.04,2.66 l 2.835,-1.575 c -1.435,-2.695 -4.06,-4.025 -7.63,-4.025 -6.37,0 -10.92,4.655 -10.92,10.92 0,4.83 3.43,8.015 8.82,8.015 z" />
      <path
         id="path100"
         style="font-style:italic;font-variant:normal;font-weight:500;font-stretch:normal;font-size:35.00000381px;line-height:125%;font-family:Montserrat;-inkscape-font-specification:'Montserrat, Medium Italic';text-align:start;writing-mode:lr-tb;text-anchor:start"
         d="m 737.91291,432.48292 c 1.435,0 2.45,-0.98 2.45,-2.415 0,-1.05 -0.91,-1.96 -2.135,-1.96 -1.435,0 -2.415,1.05 -2.415,2.345 0,1.12 0.875,2.03 2.1,2.03 z m -6.335,22.12 3.36,0 3.675,-18.55 -3.36,0 -3.675,18.55 z" />
      <path
         id="path102"
         style="font-style:italic;font-variant:normal;font-weight:500;font-stretch:normal;font-size:35.00000381px;line-height:125%;font-family:Montserrat;-inkscape-font-specification:'Montserrat, Medium Italic';text-align:start;writing-mode:lr-tb;text-anchor:start"
         d="m 759.8333,446.37792 c 0.14,-0.77 0.245,-1.61 0.245,-2.485 0,-5.005 -3.29,-8.015 -8.295,-8.015 -6.055,0 -10.465,4.585 -10.465,10.885 0,4.9 3.395,8.05 8.89,8.05 2.835,0 5.635,-0.945 7.455,-2.66 l -1.435,-2.415 c -1.33,1.295 -3.43,2.135 -5.74,2.135 -3.99,0 -5.88,-1.89 -5.88,-5.285 l 0,-0.21 15.225,0 z m -8.19,-7.7 c 3.29,0 5.46,1.855 5.285,5.25 l -11.97,0 c 0.84,-3.22 3.325,-5.25 6.685,-5.25 z" />
      <path
         id="path104"
         style="font-style:italic;font-variant:normal;font-weight:500;font-stretch:normal;font-size:35.00000381px;line-height:125%;font-family:Montserrat;-inkscape-font-specification:'Montserrat, Medium Italic';text-align:start;writing-mode:lr-tb;text-anchor:start"
         d="m 775.90978,435.87792 c -2.66,0 -5.005,0.805 -6.72,2.555 l 0.455,-2.38 -3.22,0 -3.675,18.55 3.36,0 1.96,-9.8 c 0.805,-3.99 3.255,-5.915 6.86,-5.915 2.905,0 4.305,1.365 4.305,3.78 0,0.455 -0.07,0.98 -0.175,1.54 l -2.065,10.395 3.36,0 2.065,-10.395 c 0.14,-0.77 0.21,-1.505 0.21,-2.17 0,-3.955 -2.52,-6.16 -6.72,-6.16 z" />
      <path
         id="path106"
         style="font-style:italic;font-variant:normal;font-weight:500;font-stretch:normal;font-size:35.00000381px;line-height:125%;font-family:Montserrat;-inkscape-font-specification:'Montserrat, Medium Italic';text-align:start;writing-mode:lr-tb;text-anchor:start"
         d="m 795.52892,454.81292 c 3.325,0 6.405,-1.435 8.12,-3.815 l -2.45,-1.75 c -1.295,1.75 -3.325,2.625 -5.53,2.625 -3.57,0 -5.565,-1.96 -5.565,-5.215 0,-4.585 3.08,-7.84 7.28,-7.84 2.38,0 4.06,0.875 5.04,2.66 l 2.835,-1.575 c -1.435,-2.695 -4.06,-4.025 -7.63,-4.025 -6.37,0 -10.92,4.655 -10.92,10.92 0,4.83 3.43,8.015 8.82,8.015 z" />
      <path
         id="path108"
         style="font-style:italic;font-variant:normal;font-weight:500;font-stretch:normal;font-size:35.00000381px;line-height:125%;font-family:Montserrat;-inkscape-font-specification:'Montserrat, Medium Italic';text-align:start;writing-mode:lr-tb;text-anchor:start"
         d="m 824.91142,446.37792 c 0.14,-0.77 0.245,-1.61 0.245,-2.485 0,-5.005 -3.29,-8.015 -8.295,-8.015 -6.055,0 -10.465,4.585 -10.465,10.885 0,4.9 3.395,8.05 8.89,8.05 2.835,0 5.635,-0.945 7.455,-2.66 l -1.435,-2.415 c -1.33,1.295 -3.43,2.135 -5.74,2.135 -3.99,0 -5.88,-1.89 -5.88,-5.285 l 0,-0.21 15.225,0 z m -8.19,-7.7 c 3.29,0 5.46,1.855 5.285,5.25 l -11.97,0 c 0.84,-3.22 3.325,-5.25 6.685,-5.25 z" />
      <path
         id="path110"
         style="font-style:italic;font-variant:normal;font-weight:500;font-stretch:normal;font-size:35.00000381px;line-height:125%;font-family:Montserrat;-inkscape-font-specification:'Montserrat, Medium Italic';text-align:start;writing-mode:lr-tb;text-anchor:start"
         d="m 833.67292,454.81292 c 5.04,0 8.505,-2.17 8.505,-6.02 0,-6.16 -10.255,-3.535 -10.255,-7.28 0,-1.61 1.61,-2.765 4.725,-2.765 1.89,0 3.955,0.42 5.46,1.47 l 1.33,-2.66 c -1.505,-1.05 -4.025,-1.68 -6.475,-1.68 -5.075,0 -8.4,2.345 -8.4,6.02 0,6.265 10.29,3.675 10.29,7.28 0,1.715 -1.645,2.73 -4.865,2.73 -2.52,0 -5.005,-0.735 -6.44,-1.89 l -1.505,2.66 c 1.505,1.225 4.48,2.135 7.63,2.135 z" />
    </g>
    <g
       id="flowRoot4144"
       style="font-style:normal;font-variant:normal;font-weight:normal;font-stretch:normal;font-size:150px;line-height:125%;font-family:Tahoma;-inkscape-font-specification:Tahoma;letter-spacing:0px;word-spacing:0px;fill:#000000;fill-opacity:1;stroke:none;stroke-width:1px;stroke-linecap:butt;stroke-linejoin:miter;stroke-opacity:1"
       transform="matrix(0.9,0,0,1,161.85425,-350.09074)">
      <path
         id="path113"
         style="font-style:normal;font-variant:normal;font-weight:600;font-stretch:normal;font-size:115.95018768px;line-height:125%;font-family:Montserrat;-inkscape-font-specification:'Montserrat, Semi-Bold';text-align:start;writing-mode:lr-tb;text-anchor:start;fill:#1e6239;fill-opacity:1"
         d="m 58.467178,548.61495 c 13.334272,0 24.69739,-4.75396 32.234153,-13.56618 l -9.739816,-9.27601 c -5.91346,6.49321 -13.218322,9.62386 -21.682685,9.62386 -16.812777,0 -28.987547,-11.82691 -28.987547,-28.52374 0,-16.69683 12.17477,-28.52375 28.987547,-28.52375 8.464363,0 15.769225,3.13066 21.682685,9.50792 l 9.739816,-9.16007 c -7.536763,-8.81221 -18.899881,-13.56617 -32.118202,-13.56617 -24.929291,0 -43.481321,17.50848 -43.481321,41.74207 0,24.23359 18.55203,41.74207 43.36537,41.74207 z" />
      <path
         id="path115"
         style="font-style:normal;font-variant:normal;font-weight:600;font-stretch:normal;font-size:115.95018768px;line-height:125%;font-family:Montserrat;-inkscape-font-specification:'Montserrat, Semi-Bold';text-align:start;writing-mode:lr-tb;text-anchor:start;fill:#1e6239;fill-opacity:1"
         d="m 105.14437,547.45544 35.48076,0 c 26.32069,0 44.29297,-16.23302 44.29297,-40.58256 0,-24.34954 -17.97228,-40.58257 -44.29297,-40.58257 l -35.48076,0 0,81.16513 z m 15.07353,-12.75452 0,-55.65609 19.71153,0 c 18.08823,0 29.7992,11.01527 29.7992,27.82805 0,16.81278 -11.71097,27.82804 -29.7992,27.82804 l -19.71153,0 z" />
      <path
         id="path117"
         style="font-style:normal;font-variant:normal;font-weight:600;font-stretch:normal;font-size:115.95018768px;line-height:125%;font-family:Montserrat;-inkscape-font-specification:'Montserrat, Semi-Bold';text-align:start;writing-mode:lr-tb;text-anchor:start;fill:#1e6239;fill-opacity:1"
         d="m 226.10035,548.61495 c 22.26244,0 32.8139,-11.13122 32.8139,-24.11764 0,-29.7992 -48.11933,-18.55203 -48.11933,-35.82861 0,-6.14536 5.10181,-11.01527 17.62443,-11.01527 7.07296,0 15.07353,2.0871 22.37839,6.37726 l 4.75396,-11.71097 c -7.07296,-4.63801 -17.27658,-7.18891 -27.0164,-7.18891 -22.26243,0 -32.69795,11.13122 -32.69795,24.23359 0,30.14705 48.23528,18.66798 48.23528,36.17646 0,6.02941 -5.33371,10.55147 -17.97228,10.55147 -9.97172,0 -20.29128,-3.71041 -26.78449,-8.92817 l -5.21776,11.71097 c 6.72511,5.79751 19.36368,9.73982 32.00225,9.73982 z" />
      <path
         id="path119"
         style="font-style:normal;font-variant:normal;font-weight:600;font-stretch:normal;font-size:115.95018768px;line-height:125%;font-family:Montserrat;-inkscape-font-specification:'Montserrat, Semi-Bold';text-align:start;writing-mode:lr-tb;text-anchor:start"
         d="m 295.82085,466.29031 0,12.63857 17.16063,0 0,68.52656 15.07352,0 0,-81.16513 -32.23415,0 z" />
      <path
         id="path121"
         style="font-style:normal;font-variant:normal;font-weight:600;font-stretch:normal;font-size:115.95018768px;line-height:125%;font-family:Montserrat;-inkscape-font-specification:'Montserrat, Semi-Bold';text-align:start;writing-mode:lr-tb;text-anchor:start"
         d="m 378.01322,548.61495 c 19.36368,0 33.9734,-15.07353 33.9734,-41.74207 0,-26.66854 -14.60972,-41.74207 -33.9734,-41.74207 -19.24773,0 -33.85746,15.07353 -33.85746,41.74207 0,26.66854 14.60973,41.74207 33.85746,41.74207 z m 0,-13.10238 c -11.01527,0 -18.66798,-9.04411 -18.66798,-28.63969 0,-19.59558 7.65271,-28.6397 18.66798,-28.6397 11.13122,0 18.78393,9.04412 18.78393,28.6397 0,19.59558 -7.65271,28.63969 -18.78393,28.63969 z" />
      <path
         id="path123"
         style="font-style:normal;font-variant:normal;font-weight:600;font-stretch:normal;font-size:115.95018768px;line-height:125%;font-family:Montserrat;-inkscape-font-specification:'Montserrat, Semi-Bold';text-align:start;writing-mode:lr-tb;text-anchor:start"
         d="m 417.43267,466.29031 0,12.63857 17.16063,0 0,68.52656 15.07352,0 0,-81.16513 -32.23415,0 z" />
    </g>
    <g
       id="text4162"
       style="font-style:normal;font-weight:normal;font-size:40px;line-height:125%;font-family:sans-serif;letter-spacing:0px;word-spacing:0px;fill:#000000;fill-opacity:1;stroke:none;stroke-width:1px;stroke-linecap:butt;stroke-linejoin:miter;stroke-opacity:1">
      <path
         id="path126"
         style="font-style:normal;font-variant:normal;font-weight:500;font-stretch:normal;font-size:35.00000381px;line-height:125%;font-family:Montserrat;-inkscape-font-specification:'Montserrat, Medium';text-align:start;writing-mode:lr-tb;text-anchor:start"
         d="m 194.50089,110.98921 c 7.455,0 12.985,-5.32 12.985,-12.529998 0,-7.210001 -5.53,-12.530001 -12.985,-12.530001 -7.525,0 -13.05501,5.355 -13.05501,12.530001 0,7.174998 5.53001,12.529998 13.05501,12.529998 z m 0,-3.115 c -5.495,0 -9.55501,-3.99 -9.55501,-9.414998 0,-5.425001 4.06001,-9.415001 9.55501,-9.415001 5.425,0 9.485,3.99 9.485,9.415001 0,5.424998 -4.06,9.414998 -9.485,9.414998 z" />
      <path
         id="path128"
         style="font-style:normal;font-variant:normal;font-weight:500;font-stretch:normal;font-size:35.00000381px;line-height:125%;font-family:Montserrat;-inkscape-font-specification:'Montserrat, Medium';text-align:start;writing-mode:lr-tb;text-anchor:start"
         d="m 222.25042,91.984211 c -2.94,0 -5.32,1.085 -6.685,2.975001 l 0,-2.800001 -3.22,0 0,18.549999 3.36,0 0,-9.555 c 0,-4.024998 2.31,-6.159998 5.88,-6.159998 3.185,0 5.005,1.785 5.005,5.424998 l 0,10.29 3.36,0 0,-10.675 c 0,-5.459999 -3.185,-8.049999 -7.7,-8.049999 z" />
      <path
         id="path130"
         style="font-style:normal;font-variant:normal;font-weight:500;font-stretch:normal;font-size:35.00000381px;line-height:125%;font-family:Montserrat;-inkscape-font-specification:'Montserrat, Medium';text-align:start;writing-mode:lr-tb;text-anchor:start"
         d="m 236.20285,110.70921 3.36,0 0,-25.97 -3.36,0 0,25.97 z" />
      <path
         id="path132"
         style="font-style:normal;font-variant:normal;font-weight:500;font-stretch:normal;font-size:35.00000381px;line-height:125%;font-family:Montserrat;-inkscape-font-specification:'Montserrat, Medium';text-align:start;writing-mode:lr-tb;text-anchor:start"
         d="m 247.65824,88.589211 c 1.33,0 2.275,-0.98 2.275,-2.24 0,-1.190001 -0.98,-2.135001 -2.275,-2.135001 -1.295,0 -2.275,0.98 -2.275,2.205001 0,1.225 0.98,2.17 2.275,2.17 z m -1.68,22.119999 3.36,0 0,-18.549999 -3.36,0 0,18.549999 z" />
      <path
         id="path134"
         style="font-style:normal;font-variant:normal;font-weight:500;font-stretch:normal;font-size:35.00000381px;line-height:125%;font-family:Montserrat;-inkscape-font-specification:'Montserrat, Medium';text-align:start;writing-mode:lr-tb;text-anchor:start"
         d="m 265.65863,91.984211 c -2.94,0 -5.32,1.085 -6.685,2.975001 l 0,-2.800001 -3.22,0 0,18.549999 3.36,0 0,-9.555 c 0,-4.024998 2.31,-6.159998 5.88,-6.159998 3.185,0 5.005,1.785 5.005,5.424998 l 0,10.29 3.36,0 0,-10.675 c 0,-5.459999 -3.185,-8.049999 -7.7,-8.049999 z" />
      <path
         id="path136"
         style="font-style:normal;font-variant:normal;font-weight:500;font-stretch:normal;font-size:35.00000381px;line-height:125%;font-family:Montserrat;-inkscape-font-specification:'Montserrat, Medium';text-align:start;writing-mode:lr-tb;text-anchor:start"
         d="m 296.51277,101.53921 c 0,-5.704998 -3.815,-9.554999 -9.17,-9.554999 -5.355,0 -9.31,3.955001 -9.31,9.449999 0,5.53 3.99,9.485 9.975,9.485 3.08,0 5.635,-1.05 7.315,-3.01 l -1.855,-2.17 c -1.365,1.505 -3.185,2.24 -5.355,2.24 -3.675,0 -6.3,-2.17 -6.72,-5.425 l 15.05,0 c 0.035,-0.315 0.07,-0.735 0.07,-1.015 z m -9.17,-6.719998 c 3.255,0 5.6,2.205 5.95,5.319998 l -11.9,0 c 0.35,-3.149998 2.73,-5.319998 5.95,-5.319998 z" />
    </g>
  </g>
</svg>
