<?xml version="1.0" encoding="UTF-8" standalone="no"?>
<svg
   xmlns:dc="http://purl.org/dc/elements/1.1/"
   xmlns:cc="http://creativecommons.org/ns#"
   xmlns:rdf="http://www.w3.org/1999/02/22-rdf-syntax-ns#"
   xmlns:svg="http://www.w3.org/2000/svg"
   xmlns="http://www.w3.org/2000/svg"
   viewBox="0 0 220.11383 220.11391"
   height="2.4457099in"
   width="2.4457092in"
   xml:space="preserve"
   version="1.1"
   id="svg2"><metadata
     id="metadata8"><rdf:RDF><cc:Work
         rdf:about=""><dc:format>image/svg+xml</dc:format><dc:type
           rdf:resource="http://purl.org/dc/dcmitype/StillImage" /><dc:title /></cc:Work></rdf:RDF></metadata><defs
     id="defs6" /><g
     transform="matrix(1.25,0,0,-1.25,-11.326966,134.63311)"
     id="g10"><g
       id="g12"><g
         id="text14"
         style="font-style:normal;font-weight:600;font-size:88px;font-family:Montserrat;writing-mode:lr-tb;fill:#006633;fill-opacity:1;fill-rule:nonzero;stroke:none"
         transform="scale(0.94868326,-1.0540926)"><path
           id="path20"
           style=""
           d="m 42.739882,-8.4951726 c 10.12,0 18.744,-3.6080004 24.464,-10.2960004 l -7.392,-7.04 c -4.488,4.928 -10.032,7.304 -16.456,7.304 -12.76,0 -22,-8.976 -22,-21.648 0,-12.672 9.24,-21.648 22,-21.648 6.424,0 11.968,2.376 16.456,7.216 l 7.392,-6.952 c -5.72,-6.688 -14.344,-10.296 -24.376,-10.296 -18.92,0 -33.0000004,13.288 -33.0000004,31.68 0,18.392 14.0800004,31.6800004 32.9120004,31.6800004 z" /><path
           id="path22"
           style=""
           d="m 78.203877,-9.3751726 26.928003,0 c 19.976,0 33.616,-12.3200004 33.616,-30.8000004 0,-18.48 -13.64,-30.8 -33.616,-30.8 l -26.928003,0 0,61.6000004 z m 11.44,-9.6800004 0,-42.24 14.960003,0 c 13.728,0 22.616,8.36 22.616,21.12 0,12.76 -8.888,21.12 -22.616,21.12 l -14.960003,0 z" /><path
           id="path24"
           style=""
           d="m 169.98787,-8.4951726 c 16.896,0 24.904,-8.4480004 24.904,-18.3040004 0,-22.616 -36.52,-14.08 -36.52,-27.192 0,-4.664 3.872,-8.36 13.376,-8.36 5.368,0 11.44,1.584 16.984,4.84 l 3.608,-8.888 c -5.368,-3.52 -13.112,-5.456 -20.504,-5.456 -16.896,0 -24.816,8.448 -24.816,18.392 0,22.88 36.608,14.168 36.608,27.456 0,4.576 -4.048,8.008 -13.64,8.008 -7.568,0 -15.4,-2.816 -20.328,-6.776 l -3.96,8.888 c 5.104,4.4 14.696,7.3920004 24.288,7.3920004 z" /></g><g
         id="text22"
         style="font-style:normal;font-weight:500;font-size:28px;font-family:Montserrat;writing-mode:lr-tb;fill:#000000;fill-opacity:1;fill-rule:nonzero;stroke:none"
         transform="scale(1,-1)"><path
           id="path27"
           style=""
           d="m 22.008266,-81.742003 c 5.18,0 7.588,-2.576 7.588,-5.572 0,-7.196 -11.872,-4.2 -11.872,-8.988 0,-1.708 1.428,-3.108 4.76,-3.108 1.736,0 3.668,0.504 5.376,1.596 l 0.924,-2.239997 c -1.624,-1.12 -4.004,-1.736 -6.3,-1.736 -5.152,0 -7.504,2.575997 -7.504,5.599997 0,7.28 11.872,4.256 11.872,9.044 0,1.708 -1.456,3.024 -4.844,3.024 -2.52,0 -5.012,-0.952 -6.468,-2.268 l -1.036,2.184 c 1.568,1.456 4.508,2.464 7.504,2.464 z" /><path
           id="path29"
           style=""
           d="m 46.704267,-89.302003 c 0,-4.564 -3.052,-7.644 -7.336,-7.644 -4.284,0 -7.448,3.164 -7.448,7.56 0,4.424 3.192,7.588 7.98,7.588 2.464,0 4.508,-0.84 5.852,-2.408 l -1.484,-1.736 c -1.092,1.204 -2.548,1.792 -4.284,1.792 -2.94,0 -5.04,-1.736 -5.376,-4.34 l 12.04,0 c 0.028,-0.252 0.056,-0.588 0.056,-0.812 z m -7.336,-5.376 c 2.604,0 4.48,1.764 4.76,4.256 l -9.52,0 c 0.28,-2.52 2.184,-4.256 4.76,-4.256 z" /><path
           id="path31"
           style=""
           d="m 56.89626,-81.798003 c 2.66,0 4.872,-1.12 6.048,-3.192 l -2.044,-1.288 c -0.952,1.456 -2.408,2.128 -4.032,2.128 -2.912,0 -5.096,-2.016 -5.096,-5.236 0,-3.164 2.184,-5.208 5.096,-5.208 1.624,0 3.08,0.672 4.032,2.128 l 2.044,-1.316 c -1.176,-2.072 -3.388,-3.164 -6.048,-3.164 -4.564,0 -7.84,3.136 -7.84,7.56 0,4.424 3.276,7.588 7.84,7.588 z" /><path
           id="path33"
           style=""
           d="m 74.116262,-84.766003 c -0.56,0.448 -1.316,0.7 -2.1,0.7 -1.484,0 -2.324,-0.896 -2.324,-2.492 l 0,-8.036 4.256,0 0,-2.212 -4.256,0 0,-3.247997 -2.688,0 0,3.247997 -2.52,0 0,2.212 2.52,0 0,8.148 c 0,2.996 1.708,4.648 4.704,4.648 1.204,0 2.436,-0.336 3.248,-1.036 l -0.84,-1.932 z" /><path
           id="path35"
           style=""
           d="m 79.548265,-99.662003 c 1.064,0 1.82,-0.783997 1.82,-1.791997 0,-0.952 -0.784,-1.708 -1.82,-1.708 -1.036,0 -1.82,0.784 -1.82,1.764 0,0.98 0.784,1.735997 1.82,1.735997 z m -1.344,17.696 2.688,0 0,-14.84 -2.688,0 0,14.84 z" /><path
           id="path37"
           style=""
           d="m 92.372262,-81.798003 c 4.452,0 7.699998,-3.164 7.699998,-7.588 0,-4.424 -3.247998,-7.56 -7.699998,-7.56 -4.452,0 -7.728,3.136 -7.728,7.56 0,4.424 3.276,7.588 7.728,7.588 z m 0,-2.352 c -2.856,0 -5.012,-2.072 -5.012,-5.236 0,-3.164 2.156,-5.208 5.012,-5.208 2.856,0 4.984,2.044 4.984,5.208 0,3.164 -2.128,5.236 -4.984,5.236 z" /><path
           id="path39"
           style=""
           d="m 111.72027,-96.946003 c -2.352,0 -4.256,0.868 -5.348,2.38 l 0,-2.24 -2.576,0 0,14.84 2.688,0 0,-7.644 c 0,-3.22 1.848,-4.928 4.704,-4.928 2.548,0 4.004,1.428 4.004,4.34 l 0,8.232 2.688,0 0,-8.54 c 0,-4.368 -2.548,-6.44 -6.16,-6.44 z" /><path
           id="path41"
           style=""
           d="m 130.80314,-81.966003 8.26,0 c 6.3,0 10.584,-3.976 10.584,-9.8 0,-5.824 -4.284,-9.799997 -10.584,-9.799997 l -8.26,0 0,19.599997 z m 2.8,-2.436 0,-14.728 5.292,0 c 4.844,0 7.952,2.968 7.952,7.364 0,4.396 -3.108,7.364 -7.952,7.364 l -5.292,0 z" /><path
           id="path43"
           style=""
           d="m 153.93595,-81.966003 13.412,0 0,-2.436 -10.612,0 0,-17.163997 -2.8,0 0,19.599997 z" /><path
           id="path45"
           style=""
           d="m 166.80589,-101.566 0,2.435997 4.424,0 0,17.164 2.772,0 0,-19.599997 -7.196,0 z" /></g><g
         transform="translate(10.861362,0)"
         id="g4497"><g
           id="text18"
           style="font-style:normal;font-weight:600;font-size:88px;font-family:Montserrat;writing-mode:lr-tb;fill:#000000;fill-opacity:1;fill-rule:nonzero;stroke:none"
           transform="scale(0.94868326,-1.0540926)"><path
             id="path48"
             style=""
             d="m 9.5517392,-1.9230705 0,9.592 13.0239998,0 0,52.0079995 11.44,0 0,-61.5999995 -24.4639998,0 z" /><path
             id="path50"
             style=""
             d="m 71.94374,60.556929 c 14.696,0 25.784,-11.44 25.784,-31.68 0,-20.2399995 -11.088,-31.6799995 -25.784,-31.6799995 -14.608,0 -25.696,11.44 -25.696,31.6799995 0,20.24 11.088,31.68 25.696,31.68 z m 0,-9.944 c -8.36,0 -14.168,-6.864 -14.168,-21.736 0,-14.872 5.808,-21.7359995 14.168,-21.7359995 8.448,0 14.256,6.8639995 14.256,21.7359995 0,14.872 -5.808,21.736 -14.256,21.736 z" /><path
             id="path52"
             style=""
             d="m 101.86099,-1.9230705 0,9.592 13.024,0 0,52.0079995 11.44,0 0,-61.5999995 -24.464,0 z" /></g><g
           id="text22-3"
           style="font-style:normal;font-variant:normal;font-weight:bold;font-stretch:normal;font-size:32px;line-height:125%;font-family:'Playfair Display';-inkscape-font-specification:'Playfair Display, Bold';text-align:start;writing-mode:lr-tb;text-anchor:start;fill:#f37021;fill-opacity:1;fill-rule:nonzero;stroke:none"
           transform="scale(1,-1)"><path
             id="path55"
             style="font-style:normal;font-variant:normal;font-weight:bold;font-stretch:normal;font-size:32px;line-height:125%;font-family:'Playfair Display';-inkscape-font-specification:'Playfair Display, Bold';text-align:start;writing-mode:lr-tb;text-anchor:start;fill:#f37021;fill-opacity:1"
             d="m 125.99241,-0.90479279 q 3.45312,0.09375 10.42187,0.09375 4.70313,0 6.6875,-0.09375 -0.21875,2.73437499 -0.21875,4.85937499 0,1.515625 0.0937,2.4375 l -0.73437,0 q -0.42188,-2.453125 -1.14063,-3.890625 -0.71875,-1.4375 -1.78125,-2.04687499 -1.04687,-0.625 -2.57812,-0.625 l -1.0625,0 q -1,0 -1.45313,0.171875 -0.4375,0.15625 -0.59375,0.625 -0.15625,0.45312499 -0.15625,1.48437499 l 0,8.0624998 1.125,0 q 1.70313,0 2.57813,-1.2499998 0.875,-1.265625 1.21875,-2.984375 l 0.73437,0 q -0.10937,1.578125 -0.10937,3.015625 l 0.0156,1.5312498 q 0,1.671875 0.20313,4.546875 l -0.75,0 q -0.65625,-4.21875 -3.89063,-4.21875 l -1.125,0 0,7.359375 q 0,1.28125 0.26563,1.875 0.26562,0.578125 0.95312,0.78125 0.70313,0.203125 2.20313,0.21875 l 0,0.703125 q -3.9375,-0.09375 -5.85938,-0.09375 -0.92187,0 -5.04687,0.09375 l 0,-0.640625 q 1.0625,-0.04687 1.54687,-0.25 0.48438,-0.203125 0.65625,-0.75 0.1875,-0.546875 0.1875,-1.75 l 0,-15.8749998 q 0,-1.203125 -0.1875,-1.74999999 -0.17187,-0.546875 -0.65625,-0.75 -0.48437,-0.203125 -1.54687,-0.25 l 0,-0.640625 z" /><path
             id="path57"
             style="font-style:normal;font-variant:normal;font-weight:bold;font-stretch:normal;font-size:32px;line-height:125%;font-family:'Playfair Display';-inkscape-font-specification:'Playfair Display, Bold';text-align:start;writing-mode:lr-tb;text-anchor:start;fill:#f37021;fill-opacity:1"
             d="m 161.64866,19.063957 q 0.42187,1.0625 0.95312,1.546875 0.53125,0.46875 1.0625,0.5 l 0,0.640625 q -1.92187,-0.09375 -4.85937,-0.09375 -3.28125,0 -4.85938,0.09375 l 0,-0.640625 q 1.20313,-0.04687 1.71875,-0.296875 0.53125,-0.25 0.53125,-0.875 0,-0.484375 -0.39062,-1.515625 l -1.92188,-5.25 -6.96875,0 -0.84375,2.203125 q -0.875,2.25 -0.875,3.5625 0,1.1875 0.70313,1.65625 0.70312,0.46875 2.125,0.515625 l 0,0.640625 q -2.15625,-0.09375 -3.96875,-0.09375 -1.46875,0 -2.4375,0.09375 l 0,-0.640625 q 1.59375,-0.265625 2.75,-3.359375 l 7.29687,-18.71874979 q 0.51563,0.046875 1.10938,0.046875 0.625,0 1.10937,-0.046875 l 7.76563,20.03124979 z m -11.17188,-15.1718748 -3.3125,8.6406248 6.48438,0 -3.17188,-8.6406248 z" /><path
             id="path59"
             style="font-style:normal;font-variant:normal;font-weight:bold;font-stretch:normal;font-size:32px;line-height:125%;font-family:'Playfair Display';-inkscape-font-specification:'Playfair Display, Bold';text-align:start;writing-mode:lr-tb;text-anchor:start;fill:#f37021;fill-opacity:1"
             d="m 128.03928,46.782707 q -0.32812,-1.15625 -0.85937,-2.546875 -0.51563,-1.390625 -0.73438,-2.109375 -0.20312,-0.71875 -0.20312,-1.59375 0,-0.96875 0.5625,-1.546875 0.57812,-0.59375 1.45312,-0.59375 0.875,0 1.4375,0.578125 0.57813,0.5625 0.57813,1.53125 0,0.78125 -0.1875,1.453125 -0.17188,0.671875 -0.71875,2.109375 -0.53125,1.421875 -0.89063,2.71875 l -0.4375,0 z" /><path
             id="path61"
             style="font-style:normal;font-variant:normal;font-weight:bold;font-stretch:normal;font-size:32px;line-height:125%;font-family:'Playfair Display';-inkscape-font-specification:'Playfair Display, Bold';text-align:start;writing-mode:lr-tb;text-anchor:start;fill:#f37021;fill-opacity:1"
             d="m 140.61741,58.642082 q 0,0.953125 0.21875,1.484375 0.23437,0.515625 0.71875,0.734375 0.5,0.21875 1.35937,0.21875 l 0,0.671875 q -3.4375,-0.125 -4.42187,-0.125 -1,0 -5.5,0.125 l 0,-0.671875 q 1.51562,0 2.26562,-0.5625 0.75,-0.578125 0.75,-2.0625 l 0,-7.8125 q 0,-1.546875 -0.28125,-2.265625 -0.26562,-0.71875 -0.90625,-0.953125 -0.64062,-0.234375 -1.95312,-0.234375 l 0,-0.703125 q 2.78125,-0.04687 4.57812,-0.40625 1.79688,-0.375 3.17188,-1.21875 l 0,13.78125 z" /><path
             id="path63"
             style="font-style:normal;font-variant:normal;font-weight:bold;font-stretch:normal;font-size:32px;line-height:125%;font-family:'Playfair Display';-inkscape-font-specification:'Playfair Display, Bold';text-align:start;writing-mode:lr-tb;text-anchor:start;fill:#f37021;fill-opacity:1"
             d="m 154.92991,48.313957 q 1.95312,1.65625 2.98437,2.65625 1.03125,1 1.79688,2.328125 0.76562,1.328125 0.76562,2.859375 0,1.75 -1.01562,3.125 -1.01563,1.375 -2.8125,2.15625 -1.78125,0.765625 -4.01563,0.765625 -2.01562,0 -3.71875,-0.625 -1.6875,-0.640625 -2.70312,-1.875 -1,-1.234375 -1,-2.984375 0,-3.921875 5.20312,-6.203125 -1.29687,-1.109375 -2.17187,-2.0625 -0.875,-0.96875 -1.42188,-2.109375 -0.54687,-1.15625 -0.54687,-2.484375 0,-1.65625 0.92187,-2.828125 0.92188,-1.1875 2.46875,-1.78125 1.54688,-0.609375 3.39063,-0.609375 1.8125,0 3.23437,0.5625 1.42188,0.546875 2.21875,1.5625 0.8125,1.015625 0.8125,2.359375 0,1.5625 -1.10937,2.8125 -1.10938,1.234375 -3.28125,2.375 z m -2.14063,-9.09375 q -1.0625,0 -1.6875,0.734375 -0.60937,0.71875 -0.60937,1.921875 0,1.109375 0.51562,2.125 0.51563,1.015625 1.34375,1.921875 0.84375,0.890625 2.07813,1.953125 0.60937,-0.859375 0.89062,-2.078125 0.29688,-1.234375 0.29688,-2.421875 0,-1.9375 -0.75,-3.046875 -0.75,-1.109375 -2.07813,-1.109375 z m 0,22.40625 q 1.5,0 2.35938,-0.953125 0.875,-0.953125 0.875,-2.5 0,-1.421875 -0.70313,-2.640625 -0.6875,-1.21875 -1.64062,-2.125 -0.9375,-0.921875 -2.76563,-2.46875 -1.73437,1.828125 -1.73437,5.21875 0,2.4375 0.84375,3.953125 0.85937,1.515625 2.76562,1.515625 z" /></g></g></g></g></svg>