<?xml version="1.0" encoding="UTF-8" standalone="no"?>
<svg
   xmlns:dc="http://purl.org/dc/elements/1.1/"
   xmlns:cc="http://creativecommons.org/ns#"
   xmlns:rdf="http://www.w3.org/1999/02/22-rdf-syntax-ns#"
   xmlns:svg="http://www.w3.org/2000/svg"
   xmlns="http://www.w3.org/2000/svg"
   version="1.1"
   id="svg2"
   viewBox="0 0 393.75001 175"
   height="140pt"
   width="315pt">
  <defs
     id="defs4" />
  <metadata
     id="metadata7">
    <rdf:RDF>
      <cc:Work
         rdf:about="">
        <dc:format>image/svg+xml</dc:format>
        <dc:type
           rdf:resource="http://purl.org/dc/dcmitype/StillImage" />
        <dc:title />
      </cc:Work>
    </rdf:RDF>
  </metadata>
  <g
     id="flowRoot4136"
     style="font-style:normal;font-variant:normal;font-weight:normal;font-stretch:normal;font-size:40px;line-height:125%;font-family:'Fira Sans';-inkscape-font-specification:'Fira Sans';letter-spacing:0px;word-spacing:0px;fill:#000000;fill-opacity:1;stroke:none;stroke-width:1px;stroke-linecap:butt;stroke-linejoin:miter;stroke-opacity:1"
     transform="translate(-175.44588,-38.132203)" />
  <g
     id="flowRoot4144"
     style="font-style:normal;font-variant:normal;font-weight:normal;font-stretch:normal;font-size:150px;line-height:125%;font-family:Tahoma;-inkscape-font-specification:Tahoma;letter-spacing:0px;word-spacing:0px;fill:#000000;fill-opacity:1;stroke:none;stroke-width:1px;stroke-linecap:butt;stroke-linejoin:miter;stroke-opacity:1"
     transform="matrix(0.9,0,0,1,-13.59163,-388.22294)">
    <path
       id="path20"
       style="font-style:normal;font-variant:normal;font-weight:600;font-stretch:normal;font-size:115.95018768px;line-height:125%;font-family:Montserrat;-inkscape-font-specification:'Montserrat, Semi-Bold';text-align:start;writing-mode:lr-tb;text-anchor:start;fill:#1e6239;fill-opacity:1"
       d="m 58.467178,548.61495 c 13.334272,0 24.69739,-4.75396 32.234153,-13.56618 l -9.739816,-9.27601 c -5.91346,6.49321 -13.218322,9.62386 -21.682685,9.62386 -16.812777,0 -28.987547,-11.82691 -28.987547,-28.52374 0,-16.69683 12.17477,-28.52375 28.987547,-28.52375 8.464363,0 15.769225,3.13066 21.682685,9.50792 l 9.739816,-9.16007 c -7.536763,-8.81221 -18.899881,-13.56617 -32.118202,-13.56617 -24.929291,0 -43.481321,17.50848 -43.481321,41.74207 0,24.23359 18.55203,41.74207 43.36537,41.74207 z" />
    <path
       id="path22"
       style="font-style:normal;font-variant:normal;font-weight:600;font-stretch:normal;font-size:115.95018768px;line-height:125%;font-family:Montserrat;-inkscape-font-specification:'Montserrat, Semi-Bold';text-align:start;writing-mode:lr-tb;text-anchor:start;fill:#1e6239;fill-opacity:1"
       d="m 105.14437,547.45544 35.48076,0 c 26.32069,0 44.29297,-16.23302 44.29297,-40.58256 0,-24.34954 -17.97228,-40.58257 -44.29297,-40.58257 l -35.48076,0 0,81.16513 z m 15.07353,-12.75452 0,-55.65609 19.71153,0 c 18.08823,0 29.7992,11.01527 29.7992,27.82805 0,16.81278 -11.71097,27.82804 -29.7992,27.82804 l -19.71153,0 z" />
    <path
       id="path24"
       style="font-style:normal;font-variant:normal;font-weight:600;font-stretch:normal;font-size:115.95018768px;line-height:125%;font-family:Montserrat;-inkscape-font-specification:'Montserrat, Semi-Bold';text-align:start;writing-mode:lr-tb;text-anchor:start;fill:#1e6239;fill-opacity:1"
       d="m 226.10035,548.61495 c 22.26244,0 32.8139,-11.13122 32.8139,-24.11764 0,-29.7992 -48.11933,-18.55203 -48.11933,-35.82861 0,-6.14536 5.10181,-11.01527 17.62443,-11.01527 7.07296,0 15.07353,2.0871 22.37839,6.37726 l 4.75396,-11.71097 c -7.07296,-4.63801 -17.27658,-7.18891 -27.0164,-7.18891 -22.26243,0 -32.69795,11.13122 -32.69795,24.23359 0,30.14705 48.23528,18.66798 48.23528,36.17646 0,6.02941 -5.33371,10.55147 -17.97228,10.55147 -9.97172,0 -20.29128,-3.71041 -26.78449,-8.92817 l -5.21776,11.71097 c 6.72511,5.79751 19.36368,9.73982 32.00225,9.73982 z" />
    <path
       id="path26"
       style="font-style:normal;font-variant:normal;font-weight:600;font-stretch:normal;font-size:115.95018768px;line-height:125%;font-family:Montserrat;-inkscape-font-specification:'Montserrat, Semi-Bold';text-align:start;writing-mode:lr-tb;text-anchor:start"
       d="m 295.82085,466.29031 0,12.63857 17.16063,0 0,68.52656 15.07352,0 0,-81.16513 -32.23415,0 z" />
    <path
       id="path28"
       style="font-style:normal;font-variant:normal;font-weight:600;font-stretch:normal;font-size:115.95018768px;line-height:125%;font-family:Montserrat;-inkscape-font-specification:'Montserrat, Semi-Bold';text-align:start;writing-mode:lr-tb;text-anchor:start"
       d="m 378.01322,548.61495 c 19.36368,0 33.9734,-15.07353 33.9734,-41.74207 0,-26.66854 -14.60972,-41.74207 -33.9734,-41.74207 -19.24773,0 -33.85746,15.07353 -33.85746,41.74207 0,26.66854 14.60973,41.74207 33.85746,41.74207 z m 0,-13.10238 c -11.01527,0 -18.66798,-9.04411 -18.66798,-28.63969 0,-19.59558 7.65271,-28.6397 18.66798,-28.6397 11.13122,0 18.78393,9.04412 18.78393,28.6397 0,19.59558 -7.65271,28.63969 -18.78393,28.63969 z" />
    <path
       id="path30"
       style="font-style:normal;font-variant:normal;font-weight:600;font-stretch:normal;font-size:115.95018768px;line-height:125%;font-family:Montserrat;-inkscape-font-specification:'Montserrat, Semi-Bold';text-align:start;writing-mode:lr-tb;text-anchor:start"
       d="m 417.43267,466.29031 0,12.63857 17.16063,0 0,68.52656 15.07352,0 0,-81.16513 -32.23415,0 z" />
  </g>
  <g
     id="text4162"
     style="font-style:normal;font-weight:normal;font-size:40px;line-height:125%;font-family:sans-serif;letter-spacing:0px;word-spacing:0px;fill:#000000;fill-opacity:1;stroke:none;stroke-width:1px;stroke-linecap:butt;stroke-linejoin:miter;stroke-opacity:1">
    <path
       id="path33"
       style="font-style:normal;font-variant:normal;font-weight:500;font-stretch:normal;font-size:35.00000381px;line-height:125%;font-family:Montserrat;-inkscape-font-specification:'Montserrat, Medium';text-align:start;writing-mode:lr-tb;text-anchor:start"
       d="m 19.055006,72.857011 c 7.455001,0 12.985001,-5.32 12.985001,-12.530001 0,-7.210001 -5.53,-12.530002 -12.985001,-12.530002 -7.525001,0 -13.0550014,5.355001 -13.0550014,12.530002 0,7.175001 5.5300004,12.530001 13.0550014,12.530001 z m 0,-3.115 c -5.495001,0 -9.555001,-3.990001 -9.555001,-9.415001 0,-5.425001 4.06,-9.415001 9.555001,-9.415001 5.425001,0 9.485001,3.99 9.485001,9.415001 0,5.425 -4.06,9.415001 -9.485001,9.415001 z" />
    <path
       id="path35"
       style="font-style:normal;font-variant:normal;font-weight:500;font-stretch:normal;font-size:35.00000381px;line-height:125%;font-family:Montserrat;-inkscape-font-specification:'Montserrat, Medium';text-align:start;writing-mode:lr-tb;text-anchor:start"
       d="m 46.804541,53.852009 c -2.94,0 -5.320001,1.085 -6.685001,2.975 l 0,-2.8 -3.22,0 0,18.550002 3.36,0 0,-9.555001 c 0,-4.025 2.31,-6.160001 5.880001,-6.160001 3.185,0 5.005,1.785001 5.005,5.425001 l 0,10.290001 3.360001,0 0,-10.675001 c 0,-5.460001 -3.185001,-8.050001 -7.700001,-8.050001 z" />
    <path
       id="path37"
       style="font-style:normal;font-variant:normal;font-weight:500;font-stretch:normal;font-size:35.00000381px;line-height:125%;font-family:Montserrat;-inkscape-font-specification:'Montserrat, Medium';text-align:start;writing-mode:lr-tb;text-anchor:start"
       d="m 60.756966,72.577011 3.36,0 0,-25.970003 -3.36,0 0,25.970003 z" />
    <path
       id="path39"
       style="font-style:normal;font-variant:normal;font-weight:500;font-stretch:normal;font-size:35.00000381px;line-height:125%;font-family:Montserrat;-inkscape-font-specification:'Montserrat, Medium';text-align:start;writing-mode:lr-tb;text-anchor:start"
       d="m 72.212356,50.457009 c 1.330001,0 2.275001,-0.98 2.275001,-2.240001 0,-1.19 -0.98,-2.135 -2.275001,-2.135 -1.295,0 -2.275,0.98 -2.275,2.205 0,1.225001 0.98,2.170001 2.275,2.170001 z m -1.68,22.120002 3.360001,0 0,-18.550002 -3.360001,0 0,18.550002 z" />
    <path
       id="path41"
       style="font-style:normal;font-variant:normal;font-weight:500;font-stretch:normal;font-size:35.00000381px;line-height:125%;font-family:Montserrat;-inkscape-font-specification:'Montserrat, Medium';text-align:start;writing-mode:lr-tb;text-anchor:start"
       d="m 90.212748,53.852009 c -2.94,0 -5.320001,1.085 -6.685001,2.975 l 0,-2.8 -3.22,0 0,18.550002 3.36,0 0,-9.555001 c 0,-4.025 2.31,-6.160001 5.880001,-6.160001 3.185,0 5.005,1.785001 5.005,5.425001 l 0,10.290001 3.360001,0 0,-10.675001 c 0,-5.460001 -3.185001,-8.050001 -7.700001,-8.050001 z" />
    <path
       id="path43"
       style="font-style:normal;font-variant:normal;font-weight:500;font-stretch:normal;font-size:35.00000381px;line-height:125%;font-family:Montserrat;-inkscape-font-specification:'Montserrat, Medium';text-align:start;writing-mode:lr-tb;text-anchor:start"
       d="m 121.06689,63.40701 c 0,-5.705001 -3.815,-9.555001 -9.17,-9.555001 -5.355,0 -9.31,3.955 -9.31,9.450001 0,5.530001 3.99,9.485001 9.975,9.485001 3.08,0 5.635,-1.05 7.315,-3.01 l -1.855,-2.17 c -1.365,1.505 -3.185,2.24 -5.355,2.24 -3.675,0 -6.3,-2.17 -6.72,-5.425001 l 15.05,0 c 0.035,-0.315 0.07,-0.735 0.07,-1.015 z m -9.17,-6.720001 c 3.255,0 5.6,2.205001 5.95,5.320001 l -11.9,0 c 0.35,-3.15 2.73,-5.320001 5.95,-5.320001 z" />
  </g>
</svg>
