<svg xmlns="http://www.w3.org/2000/svg" width="145pt" height="95pt" viewBox="0 0 145 95"><path d="M104.66 51.73c-8.281 0-13.234 6.872-13.234 13.512 0 6.645 4.953 13.52 13.234 13.52 8.32 0 13.293-6.875 13.293-13.52 0-6.64-4.973-13.512-13.293-13.512zm5.465 13.512c0 3.723-.71 9.969-5.465 9.969-4.469 0-5.402-5.422-5.402-9.969s.933-9.965 5.402-9.965c4.754 0 5.465 6.246 5.465 9.965" fill="#00613c"/><path d="M144.418 52.46h-11.086s3.477 3.474 3.54 3.54v10.16L126 52.46h-8.996s3.473 3.474 3.535 3.54v18.488l-3.535 3.54h11.3l-3.538-3.54V60.941c.386.47 16.367 19.86 16.367 19.86l.02-24.801 3.538-3.54h-.273" fill="#00613c"/><path d="M67.496 11.96L73.636.837c-1.46 1.367-2.195 1.797-3.546 2.727-7.426 5.093-16.559 6.304-25.738 13.855-6.227 5.121-9.098 12.547-9.098 12.547s8.355-9.387 20.992-14.067c5.098-1.89 8.656-2.93 11.25-3.937" fill="#fab80a"/><path d="M64.223 17.895c-6.653 2.12-14.575 4.14-22.692 9.617-6.324 4.27-9.996 11.547-9.996 11.547s8.914-8.914 21.875-11.957c2.61-.614 4.797-1.125 6.63-1.551l4.183-7.656" fill="#00613c"/><path d="M86.43 64.355l-6.703-3.601c-1.743-1.012-2.364-2.242-2.364-3.055-.023-.39.211-.89.61-1.312.629-.672 1.558-1.055 2.547-1.055.52 0 1.128.16 1.867.496 0 .012 3.46 3.41 3.46 3.41l.098.102 3.77-5.895-6.871-.984c-.906-.168-1.965-.168-2.664-.168-6.227 0-9.067 3.707-9.067 7.152 0 2.016 1.215 4.832 4.621 6.684l6.704 3.61c.585.421 1.402 1.019 1.402 2.374 0 2.442-2.223 3.325-3.715 3.325-.871 0-1.645-.22-2.3-.657 0-.004-3.817-3.761-3.817-3.761l-.11-.106-3.113 6.063-2.133-2.68c0-.012-8.601-21.766-8.601-21.766l-.028-.07h-4.261l-8.813 21.867c-.004-.004-1.242 1.574-2.062 2.617l-2.809-3.218V40.242c8.957-7.101 14.75-8.543 14.738-8.543-3.187.29-9.84.887-17.617 5.219-5.117 2.852-9.156 6.75-9.156 6.75l-.008.027-.008-.008c-1.515 2.848-3.625 7.594-5.687 12.688l-10.258-18.73H.629l4.3 4.304v31.684l-4.3 4.3h14.71l-4.37-4.3V49.05l9.613 17.199c-1.434 4.043-2.562 7.652-3.031 9.973l3.09-3.59s2.511-11.957 12.406-23.688v25.067l-4.305 4.015h26.016l-3.406-3.406c.05-.129 1.296-3.219 1.351-3.351h7.727c.05.14 1.148 3.222 1.191 3.351l-3.406 3.406h12.738l6.406.168c.914.153 1.91.227 3.043.227 7.278 0 9.86-4.309 9.86-8 0-3.688-2.68-5.469-3.832-6.067zm-32.34 3.422c.113-.285 2.344-5.855 2.535-6.336.184.48 2.32 6.055 2.426 6.336H54.09" fill="#00613c"/><path d="M66.164 48.059c-2.035.515-3.55.55-4.656.55-3.207 0-6.91-1.62-6.91-6.172 0-4.53 3.187-6.273 7.601-6.273.793 0 2.465.086 3.637.535l-.258 2.621c-1-.59-2.172-.777-2.93-.777-2.605 0-4.742 1.086-4.742 3.895 0 2.363 1.672 3.792 4.016 3.792.433 0 .848-.07 1.137-.207v-2.378h-1.88V41.37h4.985v6.688M72.215 36.371h8.48v2.277h-5.273v2.48h4.98v2.278h-4.98v2.723h5.465v2.273h-8.672v-12.03M91.555 36.164c3.965 0 6.035 2.363 6.035 6.223 0 3.828-2.106 6.222-6.035 6.222-3.93 0-6.032-2.394-6.032-6.222 0-3.86 2.067-6.223 6.032-6.223zm0 10.066c1.949 0 2.726-1.859 2.726-3.843 0-2.086-.777-3.844-2.726-3.844-1.95 0-2.723 1.758-2.723 3.844 0 1.984.773 3.843 2.723 3.843M102.605 36.371h5.723c2.14 0 3.879.965 3.879 3.035 0 1.602-.758 2.672-2.309 3.032v.035c1.036.277 1.102 1.191 1.707 2.656l1.172 3.273h-3.343l-.692-2.172c-.652-2.066-1.066-2.585-2.258-2.585h-.671v4.757h-3.208zm3.207 5h.844c1.035 0 2.344-.035 2.344-1.398 0-1.121-1.117-1.325-2.344-1.325h-.844v2.723M128.602 48.059c-2.036.515-3.551.55-4.657.55-3.207 0-6.91-1.62-6.91-6.172 0-4.53 3.188-6.273 7.602-6.273.793 0 2.465.086 3.636.535l-.257 2.621c-1-.59-2.172-.777-2.93-.777-2.606 0-4.742 1.086-4.742 3.895 0 2.363 1.672 3.792 4.015 3.792.43 0 .844-.07 1.137-.207v-2.378h-1.879V41.37h4.985v6.688M134.29 36.371h8.48v2.277h-5.274v2.48h4.984v2.278h-4.984v2.723h5.465v2.273h-8.672v-12.03M10.223 91.098c0 2.328-1.516 3.379-3.735 3.379-2.222 0-3.734-1.051-3.734-3.38v-5.284h2.27v4.906c0 1.12.304 2.074 1.464 2.074s1.465-.953 1.465-2.074v-4.906h2.27v5.285M19.082 85.813h2.89l2.88 5.785h.027l-.04-5.785h2.075v8.519h-2.816l-2.98-5.82h-.024l.074 5.82h-2.086v-8.52M36.676 94.332h2.273v-8.52h-2.273zm0 0M48.16 85.813h2.418l1.89 6.687h.024l1.906-6.688h2.329l-2.903 8.52h-2.808l-2.856-8.52M65.184 85.813h6.004v1.613h-3.735v1.754h3.527v1.613h-3.527v1.926h3.867v1.613h-6.136v-8.52M80.29 85.813h4.054c1.511 0 2.746.683 2.746 2.148 0 1.133-.54 1.89-1.637 2.148v.024c.73.195.781.844 1.207 1.879l.828 2.32h-2.367l-.484-1.539c-.465-1.465-.758-1.832-1.602-1.832h-.476v3.371h-2.27zm2.269 3.539h.597c.735 0 1.66-.024 1.66-.989 0-.793-.793-.937-1.66-.937h-.597v1.926M95.738 92.23c.586.32 1.407.563 2.344.563.719 0 1.402-.148 1.402-.828 0-1.59-4.023-.586-4.023-3.688 0-2.05 2-2.609 3.707-2.609.816 0 1.621.121 2.195.316l-.144 1.758a4.556 4.556 0 0 0-1.89-.39c-.575 0-1.528.046-1.528.793 0 1.378 4.027.449 4.027 3.527 0 2.207-1.855 2.805-3.746 2.805-.793 0-1.781-.122-2.539-.368l.195-1.879M110.36 94.332h2.269v-8.52h-2.27zm0 0M123.621 87.496h-2.098v-1.683h6.47v1.683h-2.098v6.836h-2.274v-6.836M137.633 91.121l-3.149-5.308h2.61l1.672 3.417 1.648-3.418h2.61l-3.122 5.31v3.21h-2.27v-3.21" fill="#00613c"/></svg>